<?xml version="1.0" encoding="UTF-8"?>
<svg xmlns="http://www.w3.org/2000/svg" viewBox="0 0 512 512" width="512" height="512" role="img" aria-label="Tankz">
  <defs>
    <linearGradient id="bg" x1="0" y1="0" x2="1" y2="1">
      <stop offset="0%" stop-color="#12141a"/>
      <stop offset="100%" stop-color="#0a0b0d"/>
    </linearGradient>
  </defs>
  <rect width="512" height="512" rx="96" fill="url(#bg)"/>
  <g opacity="0.1" stroke="#5eead4" stroke-width="1">
    <path d="M0 128h512M0 256h512M0 384h512M128 0v512M256 0v512M384 0v512"/>
  </g>
  <g transform="translate(44,78) scale(2.5)">
    <!-- track belt -->
  <rect x="8" y="58" width="112" height="28" rx="12" fill="#0a0c10" stroke="#6b7280" stroke-width="2.5"/>
  <rect x="14" y="62" width="100" height="5" rx="1.5" fill="#1a1f28"/>
  <!-- road wheels (3 large) -->
  <circle cx="30" cy="72" r="10" fill="#12161f" stroke="#5eead4" stroke-width="2"/>
  <circle cx="30" cy="72" r="3.5" fill="#5eead4" opacity="0.75"/>
  <circle cx="64" cy="72" r="10" fill="#12161f" stroke="#5eead4" stroke-width="2"/>
  <circle cx="64" cy="72" r="3.5" fill="#5eead4" opacity="0.55"/>
  <circle cx="98" cy="72" r="10" fill="#12161f" stroke="#5eead4" stroke-width="2"/>
  <circle cx="98" cy="72" r="3.5" fill="#5eead4" opacity="0.75"/>
  <!-- hull (low trapezoid armor) -->
  <path d="M18 60 L26 36 L100 34 L118 50 L118 60 Z" fill="#1c2230" stroke="#8b939e" stroke-width="2" stroke-linejoin="round"/>
  <rect x="34" y="42" width="58" height="5" rx="1.5" fill="#2a3140"/>
  <!-- box turret + cupola -->
  <rect x="40" y="16" width="48" height="22" rx="3" fill="#222836" stroke="#8b939e" stroke-width="2"/>
  <rect x="50" y="9" width="16" height="9" rx="2" fill="#151922" stroke="#6b7280" stroke-width="1.5"/>
  <!-- mantlet / gun collar -->
  <rect x="84" y="21" width="14" height="14" rx="2" fill="#2a3140" stroke="#8b939e" stroke-width="1.5"/>
  <!-- long barrel (brand teal spear) -->
  <rect x="94" y="25" width="58" height="7" rx="2" fill="#5eead4"/>
  <!-- muzzle brake -->
  <rect x="148" y="22" width="12" height="13" rx="2" fill="#2dd4bf"/>
  <rect x="151" y="24" width="2.2" height="9" rx="0.5" fill="#0a0c10" opacity="0.4"/>
  <rect x="155.5" y="24" width="2.2" height="9" rx="0.5" fill="#0a0c10" opacity="0.4"/>
  <!-- rear antenna -->
  <line x1="46" y1="16" x2="46" y2="3" stroke="#5eead4" stroke-width="2.2" stroke-linecap="round"/>
  <circle cx="46" cy="2.5" r="2.4" fill="#5eead4"/>
  </g>
  <text x="256" y="430" text-anchor="middle" font-family="Segoe UI, system-ui, sans-serif" font-size="72" font-weight="700" letter-spacing="-0.03em" fill="#eef0f4">Tankz</text>
  <rect x="220" y="448" width="72" height="8" rx="4" fill="#5eead4"/>
</svg>